<svg xmlns="http://www.w3.org/2000/svg" style="display: none;">
    <!-- Іконка 1: око з лініями -->
    <symbol id="icon-eye" viewBox="0 0 24 24" fill="none" stroke="currentColor">
        <path
                stroke-linecap="round"
                stroke-linejoin="round"
                stroke-width="2"
                d="M15 12a3 3 0 11-6 0 3 3 0 016 0z"
        />
        <path
                stroke-linecap="round"
                stroke-linejoin="round"
                stroke-width="2"
                d="M2.458 12C3.732 7.943 7.523 5 12 5c4.477 0 8.268 2.943 9.542 7-.274.823-.68 1.597-1.196 2.3M15 12a3 3 0 01-6 0m6 0a3 3 0 01-6 0m6 0c0 1.657-1.343 3-3 3s-3-1.343-3-3m6 0c0-1.657-1.343-3-3-3s-3 1.343-3 3"
        />
    </symbol>

    <!-- Іконка 2: Перекреслене око -->
    <symbol id="icon-eye-off" viewBox="0 0 24 24" fill="none" stroke="currentColor">
        <path
                stroke-linecap="round"
                stroke-linejoin="round"
                stroke-width="2"
                d="M13.875 18.825A10.05 10.05 0 0112 19c-4.477 0-8.268-2.943-9.542-7a10.05 10.05 0 011.196-2.3m1.196-2.3A10.05 10.05 0 0112 5c4.477 0 8.268 2.943 9.542 7-.274.823-.68 1.597-1.196 2.3M15 12a3 3 0 11-6 0 3 3 0 016 0z"
        />
        <path
                stroke-linecap="round"
                stroke-linejoin="round"
                stroke-width="2"
                d="M3 3l18 18"
        />
    </symbol>
    <symbol id="icon-exclamation" viewBox="0 0 24 24" fill="none" stroke="currentColor">
        <path
                stroke-linecap="round"
                stroke-linejoin="round"
                stroke-width="2"
                d="M12 9v2m0 4h.01"
        />
        <circle cx="12" cy="12" r="10"/>
    </symbol>
    <symbol id="icon-check" viewBox="0 0 24 24" fill="none" stroke="currentColor">
        <path
                stroke-linecap="round"
                stroke-linejoin="round"
                stroke-width="2"
                d="M22 11.08V12a10 10 0 11-5.93-9.14"
        />
        <path
                stroke-linecap="round"
                stroke-linejoin="round"
                stroke-width="2"
                d="M22 4L12 14.01l-3-3"
        />
    </symbol>
    <symbol id="icon-mail" viewBox="0 0 24 24" fill="none" stroke="currentColor">
    <!-- Контур конверта -->
    <rect
        x="2"
        y="4"
        width="20"
        height="16"
        rx="2"
        ry="2"
        stroke-width="2"
        stroke-linecap="round"
        stroke-linejoin="round"
        fill="none" stroke="currentColor"
    />
    <!-- Лінія згину конверта -->
    <path
        d="M2 4l10 8L22 4"
        stroke-width="2"
        stroke-linecap="round"
        stroke-linejoin="round"
    />
</symbol>

<symbol id="icon-username" viewBox="0 0 24 24" fill="none" stroke="currentColor">

    <circle
        cx="12"
        cy="8"
        r="4"
        stroke-width="2"
        stroke-linecap="round"
        stroke-linejoin="round"
    />
    <path
        d="M4 20c0-4 4-6 8-6s8 2 8 6"
        stroke-width="2"
        stroke-linecap="round"
        stroke-linejoin="round"
    />
</symbol>


</svg>
