<svg xmlns="http://www.w3.org/2000/svg" style="display: none;">
    <!-- Іконка 1: Очі з лініями -->
    <symbol id="icon-eye" viewBox="0 0 24 24" fill="none" stroke="currentColor">
        <path
                stroke-linecap="round"
                stroke-linejoin="round"
                stroke-width="2"
                d="M15 12a3 3 0 11-6 0 3 3 0 016 0z"
        />
        <path
                stroke-linecap="round"
                stroke-linejoin="round"
                stroke-width="2"
                d="M2.458 12C3.732 7.943 7.523 5 12 5c4.477 0 8.268 2.943 9.542 7-.274.823-.68 1.597-1.196 2.3M15 12a3 3 0 01-6 0m6 0a3 3 0 01-6 0m6 0c0 1.657-1.343 3-3 3s-3-1.343-3-3m6 0c0-1.657-1.343-3-3-3s-3 1.343-3 3"
        />
    </symbol>

    <!-- Іконка 2: Перекреслене око -->
    <symbol id="icon-eye-off" viewBox="0 0 24 24" fill="none" stroke="currentColor">
        <path
                stroke-linecap="round"
                stroke-linejoin="round"
                stroke-width="2"
                d="M13.875 18.825A10.05 10.05 0 0112 19c-4.477 0-8.268-2.943-9.542-7a10.05 10.05 0 011.196-2.3m1.196-2.3A10.05 10.05 0 0112 5c4.477 0 8.268 2.943 9.542 7-.274.823-.68 1.597-1.196 2.3M15 12a3 3 0 11-6 0 3 3 0 016 0z"
        />
        <path
                stroke-linecap="round"
                stroke-linejoin="round"
                stroke-width="2"
                d="M3 3l18 18"
        />
    </symbol>
</svg>
